<svg xmlns="http://www.w3.org/2000/svg" viewBox="0 0 342.012 33.96"><defs><style>.cls-1{fill:#fff}</style></defs><g id="MA-Small-Logo" transform="translate(-315.174 193.335)"><g id="Group_4" data-name="Group 4" transform="translate(315.174 -193.335)"><path id="Path_1" data-name="Path 1" class="cls-1" d="M16.98 2.2A14.782 14.782 0 1 1 2.2 16.98 14.782 14.782 0 0 1 16.98 2.2m0-2.2a16.98 16.98 0 1 0 16.98 16.98A16.98 16.98 0 0 0 16.98 0z"/><path id="Path_2" data-name="Path 2" class="cls-1" d="M45.047 84.445L38.1 79.232v4.655h-2.54V74.16l9.487 7.114 9.485-7.114v9.727H52v-4.655z" transform="translate(-28.067 -58.533)"/><path id="Path_3" data-name="Path 3" class="cls-1" d="M45.063 49.555L35.58 42.44v-7.28l9.483 7.114 9.483-7.114v7.28zm-6.954-8.383l6.954 5.211 6.954-5.211v-.938l-6.954 5.218-6.954-5.211z" transform="translate(-28.082 -27.751)"/></g><text id="MUSAN" transform="translate(360.225 -166.123)" font-family="MullerExtraBold,Muller" font-size="28" fill="#fff"><tspan x="0" y="0">MUSAN</tspan></text><text id="ADVERTISING" transform="translate(471.186 -166.123)" font-family="MullerRegular,Muller" font-size="28" fill="#fff"><tspan x="0" y="0">ADVERTISING</tspan></text></g></svg>